<svg xmlns="http://www.w3.org/2000/svg" version="1.1" xmlns:xlink="http://www.w3.org/1999/xlink" width="500" height="500"><svg xmlns="http://www.w3.org/2000/svg" xmlns:xlink="http://www.w3.org/1999/xlink" width="500" zoomAndPan="magnify" viewBox="0 0 375 374.999991" height="500" preserveAspectRatio="xMidYMid meet" version="1.0"><defs><clipPath id="SvgjsClipPath1001"><path d="M 98 9 L 279.816406 9 L 279.816406 365 L 98 365 Z M 98 9 " clip-rule="nonzero"></path></clipPath></defs><g clip-path="url(#a6533960d7)"><path fill="#f0355e" d="M 236.988281 17.53125 C 249.234375 21.054688 260.03125 28.902344 267.574219 39.152344 C 270.890625 43.621094 273.636719 48.5 275.851562 53.609375 C 277.355469 57.03125 278.589844 60.578125 279.679688 64.183594 C 277.8125 53.011719 273.496094 41.976562 266.558594 32.863281 C 251.050781 11.992188 222.089844 3.433594 197.824219 13.101562 C 182.328125 19.105469 170.792969 32.445312 167.835938 48.890625 C 167.179688 52.371094 166.890625 55.90625 166.910156 59.433594 C 166.980469 81.378906 175.539062 102.386719 186.375 121.097656 C 188.199219 124.238281 190.09375 127.332031 192.046875 130.394531 C 178.941406 114.757812 166.882812 98.410156 158.214844 79.679688 C 152.078125 65.617188 149.222656 47.972656 156.992188 34 C 160.160156 28.355469 165.34375 24.027344 171.535156 22.054688 C 166.640625 23.007812 162.042969 25.484375 158.523438 29.019531 C 154.902344 32.601562 152.328125 37.144531 150.691406 41.945312 C 149.4375 45.71875 148.6875 49.589844 148.367188 53.496094 C 143.351562 57.597656 128.328125 71.410156 128.742188 89.3125 C 128.917969 96.925781 129.550781 103.335938 128.554688 108.636719 C 121.871094 107.636719 117.296875 101.503906 117.296875 101.503906 C 119.8125 109.046875 123.890625 111.84375 127.316406 112.769531 C 126.304688 115.078125 124.761719 117.125 122.4375 118.917969 C 114.0625 125.386719 102.121094 130.113281 101.042969 134.34375 C 100.449219 136.664062 101.070312 139.167969 105.230469 141.1875 C 108.691406 142.867188 110 145.914062 112.320312 147.15625 C 112.320312 147.15625 110.082031 151.015625 106.101562 152.382812 C 102.121094 153.75 104.484375 159.597656 107.59375 161.089844 C 110.703125 162.582031 113.480469 164.117188 114.683594 165.941406 C 114.683594 165.941406 107.71875 165.195312 106.847656 169.550781 C 105.976562 173.902344 111.988281 177.554688 112.570312 180.371094 C 113.296875 183.914062 110.414062 188.167969 109.210938 192.6875 C 107.207031 200.21875 112.816406 207.492188 123.019531 207.988281 C 133.21875 208.488281 155.972656 208.417969 161.332031 209.359375 C 176.261719 211.96875 198.40625 231.625 203.382812 263.222656 C 208.355469 294.820312 195.171875 309.5 195.171875 309.5 C 195.171875 309.5 235.558594 283.457031 228.59375 239.007812 C 221.625 194.554688 179.332031 166.191406 159.261719 122.566406 C 144.265625 89.976562 145.996094 67.96875 148.179688 58.121094 C 148.191406 67.878906 150.667969 77.707031 154.453125 86.628906 C 160.300781 100.449219 168.207031 113.320312 176.867188 125.515625 C 193.964844 149.589844 214.191406 170.9375 231.15625 194.988281 C 238.375 205.316406 244.960938 216.144531 249.566406 227.835938 C 260.210938 254.875 257.695312 286.761719 242.445312 311.539062 C 230.621094 331.070312 210.996094 345.332031 188.382812 349.269531 C 177.859375 351.167969 166.945312 350.988281 156.421875 349.160156 C 138.613281 346.074219 121.585938 336.386719 112.554688 320.347656 C 104.394531 306.359375 103.253906 286.824219 114.449219 274.140625 C 118.386719 269.660156 123.691406 266.273438 129.605469 265.175781 C 142.054688 262.703125 155.4375 271.273438 155.367188 284.652344 C 155.367188 287.851562 154.582031 291.066406 153.289062 294.074219 C 154.9375 291.207031 156.074219 288.027344 156.414062 284.707031 C 157.648438 273.972656 149.597656 264.414062 139.472656 261.644531 C 134.390625 260.160156 128.816406 260.269531 123.738281 261.832031 C 111.675781 265.542969 102.722656 276.410156 99.761719 288.480469 C 95.335938 305.882812 101.507812 324.722656 113.257812 337.902344 C 122.597656 348.539062 135.488281 355.796875 149.035156 359.480469 C 194.316406 371.539062 235.488281 351.796875 255.980469 315.464844 C 250.714844 330.84375 242.414062 345.261719 230.566406 356.519531 C 227.65625 359.285156 224.527344 361.851562 221.210938 364.234375 C 224.957031 362.609375 228.546875 360.5625 231.9375 358.207031 C 234.050781 356.757812 236.125 355.121094 238.058594 353.4375 C 245.527344 346.941406 251.691406 339.015625 256.554688 330.367188 C 270.488281 305.183594 274.101562 274.886719 268.136719 246.734375 C 266.835938 238.625 264.601562 230.664062 261.46875 223.074219 C 256.238281 210.484375 248.894531 198.886719 240.851562 187.996094 C 238.433594 184.734375 235.945312 181.523438 233.402344 178.351562 C 219.414062 158.324219 204.503906 138.914062 192.710938 117.507812 C 182.28125 98.578125 173.75 77.414062 174.792969 55.453125 C 176.6875 24.121094 208.988281 9.230469 236.988281 17.53125 Z M 236.988281 17.53125 " fill-opacity="1" fill-rule="nonzero"></path></g></svg><style>@media (prefers-color-scheme: light) { :root { filter: none; } }
@media (prefers-color-scheme: dark) { :root { filter: none; } }
</style></svg>